<?xml version="1.0" encoding="utf-8"?>
<!-- Generator: Adobe Illustrator 21.1.0, SVG Export Plug-In . SVG Version: 6.00 Build 0)  -->
<svg version="1.1" id="Layer_1" xmlns="http://www.w3.org/2000/svg" xmlns:xlink="http://www.w3.org/1999/xlink" x="0px" y="0px"
	 viewBox="0 0 623.3 127.6" style="enable-background:new 0 0 623.3 127.6;" xml:space="preserve">
<style type="text/css">
	.st0{fill:#FFFFFF;}
	.st1{fill:#DB2001;}
</style>
<title>bbctop-logo</title>
<path class="st0" d="M311.4,45.8h9.6v19.6c0,2.1,0.9,3.5,2.7,4v-22c0-3.2-2.1-4.8-6.2-4.8h-6.2v-8.8h10.2v-3.5
	c0-2.3-1.5-3.5-4.6-3.5h-5.1v-9.1h9.6v-3.8h11.3v3.8h8v9.1h-8v7h8.3v8.9h-7v7.8h6.4v9.1h-6.4v9.9h42.1v2.9c0,3.9-1.9,5.9-5.6,5.9
	h-43.6c-3-0.5-5-2-5.9-4.3v4.3h-9.6L311.4,45.8z M366.1,14.7c6.1,0,9.1,2.5,9.1,7.5V37c0,2.7-1.7,4.1-5.1,4.3h-5.4v-15
	c0-2.1-0.8-3.2-2.4-3.2h-1.9c-3.4,9.1-8.9,15.4-16.6,18.8V30.5c2.6-1.9,4.7-4.5,5.9-7.5h-6.2v-8.3L366.1,14.7z M374.9,51.2V67
	l-30.8-0.3V51.2c0-5.7,2.9-8.4,8.6-8h15C372.5,43.2,374.9,45.8,374.9,51.2L374.9,51.2z M361.8,51.7h-7.5v6.4H365v-3.5
	c0-1.6-1.2-2.9-2.8-3C362.1,51.7,361.9,51.7,361.8,51.7L361.8,51.7z"/>
<path class="st0" d="M393.7,45.8h9.6v19.6c0,2.1,1.2,3.5,3.5,4v-22c0-3.2-2.3-4.8-7-4.8h-6.2v-8.8h11v-3.5c0-2.3-1.5-3.5-4.6-3.5
	h-5.9v-9.1h10.5v-3.8H416v3.8h7.2v9.1H416v7h7.5v8.9h-6.2v7.8h5.6v9.1h-5.6v9.9h41.3v2.9c0,3.9-1.9,5.9-5.6,5.9h-43.7
	c-3-0.5-5-2-5.9-4.3v4.3h-9.6V45.8z M437.7,46.1l4.6-3l-3-16.1h-3.5v30.3c0,1.1,0.8,1.6,2.4,1.6h2.1v8.3H432c-4.3,0-6.4-2.1-6.4-6.4
	V27.1c0-6.1,2.6-9.1,7.8-9.1h5.1l-0.3-3.8h10.2l0.3,3.8h3.2l-1.1-2.7h6.4l1.3,5.9c0,3.8-1.8,5.7-5.4,5.9h-3.5l1.9,10.5l5.9-3.5v10.4
	l-4,2.7l4,20.4h-10.7l-2.7-14.5l-6.4,4L437.7,46.1z"/>
<path class="st0" d="M540.9,35.4v4.8c0,2.4-2,4.4-4.4,4.4H523v23.3c0,0.9,0.7,1.6,1.6,1.6h16.1v3.8c0,2.6-2.1,4.7-4.7,4.7
	c0,0,0,0,0,0h-17.5c-3.7,0-6.7-3-6.7-6.7v0V44.5h-3.5c-5,16.6-15.3,27.9-30.8,33.8V66.7c8.9-5.9,15-13.3,18.2-22.3h-19.6v-9.1h21.7
	l1.3-12.4H478v-9.1h61.1v5.1c0,2.2-1.8,4-4,4h-23.9l-1.3,12.3L540.9,35.4z"/>
<path class="st0" d="M558.4,14.7h16.9c7-0.4,10.4,2.3,10.2,8V33c0,4.5-2.4,8-7.2,10.5h7.2v22c-0.4,5.5-3.5,8.3-9.4,8.3H571v-8.9h3
	V23h-5.4v55h-10.2V14.7z M588.2,24.1c0-6.6,2.9-9.9,8.8-9.9h16.9c5.7,0,8.6,3,8.6,9.1V49h-23.6v19.3c0,0.9,0.8,1.3,2.4,1.3h2.4v4.6
	c0,2.1-1.6,3.8-3.7,3.8c0,0,0,0,0,0h-5.1c-4.5,0-6.7-2.1-6.7-6.4L588.2,24.1z M598.9,27.1h12.6v-0.8c0-2.5-1.6-3.8-4.8-3.8h-7.8
	L598.9,27.1z M606.7,35.6h-7.8v4.8h12.6v-1.9C611.5,36.5,609.9,35.5,606.7,35.6z M620.9,51.7v9.4h-6.4l8.8,16.1h-11.8l-9.4-19.6
	c-0.2-3.9,1.1-5.9,3.8-5.9H620.9z"/>
<path class="st0" d="M319.9,95.8h4.3c2.6,0,3.9,1.2,3.9,3.4v4.6c0,0.6-0.2,1.1-0.5,1.6c-0.3,0.5-0.9,0.8-1.5,0.7
	c0.6,0,1.1,0.2,1.5,0.7c0.3,0.5,0.5,1,0.5,1.6v4.6c0,2.3-1.3,3.4-3.9,3.4h-12.4V95.8H319.9z M324.1,104.9c0.3,0,0.5,0,0.7-0.2
	c0.2-0.1,0.3-0.2,0.4-0.4c0.1-0.2,0.2-0.4,0.2-0.6v-4.5c0-0.3-0.1-0.6-0.3-0.9c-0.3-0.2-0.6-0.3-1-0.3h-9.9v6.9L324.1,104.9z
	 M314.3,107.2v6.9h9.9c0.4,0,0.7-0.1,1-0.3c0.2-0.2,0.3-0.5,0.3-0.8v-4.6c0-0.3-0.1-0.6-0.3-0.8c-0.3-0.2-0.6-0.4-1-0.3L314.3,107.2
	z"/>
<path class="st0" d="M354,95.8h4.3c2.6,0,3.9,1.2,3.9,3.4v4.6c0,0.6-0.2,1.1-0.5,1.6c-0.3,0.5-0.9,0.8-1.5,0.7
	c0.6,0,1.1,0.2,1.5,0.7c0.3,0.5,0.5,1,0.5,1.6v4.6c0,2.3-1.3,3.4-3.9,3.4h-12.4V95.8H354z M358.2,104.9c0.3,0,0.5,0,0.7-0.2
	c0.2-0.1,0.3-0.2,0.4-0.4c0.1-0.2,0.2-0.4,0.2-0.6v-4.5c0-0.3-0.1-0.6-0.3-0.9c-0.3-0.2-0.6-0.3-1-0.3h-9.9v6.9L358.2,104.9z
	 M348.4,107.2v6.9h9.9c0.4,0,0.7-0.1,1-0.3c0.2-0.2,0.3-0.5,0.3-0.8v-4.6c0-0.3-0.1-0.6-0.3-0.8c-0.3-0.2-0.6-0.4-1-0.3L348.4,107.2
	z"/>
<path class="st0" d="M396.4,111.8v1.2c0,2.3-1.3,3.4-3.9,3.4h-8.6c-2.6,0-3.9-1.1-3.9-3.4V99.2c0-2.3,1.3-3.4,3.9-3.4h8.6
	c2.6,0,3.9,1.2,3.9,3.4v1.1h-2.6v-1.1c0-0.3-0.1-0.6-0.3-0.9c-0.3-0.2-0.6-0.3-1-0.3h-8.6c-0.9,0-1.3,0.4-1.3,1.2v13.7
	c0,0.3,0.1,0.6,0.3,0.8c0.3,0.2,0.6,0.3,1,0.3h8.6c0.4,0,0.7-0.1,1-0.3c0.2-0.2,0.3-0.5,0.3-0.8v-1.2H396.4z"/>
<path class="st0" d="M418.7,116.4V98h-6.9v-2.2h16.3V98h-6.9v18.3L418.7,116.4z"/>
<path class="st0" d="M451.7,95.8h4.3c2.6,0,3.9,1.2,3.9,3.4v13.7c0,2.3-1.3,3.4-3.9,3.4h-8.6c-2.5,0-3.8-1.1-3.8-3.4V99.2
	c-0.1-1,0.3-1.9,1-2.6c0.8-0.6,1.8-0.9,2.9-0.9L451.7,95.8z M447.4,98c-0.9,0-1.3,0.4-1.3,1.2v13.7c0,0.3,0.1,0.6,0.3,0.8
	c0.3,0.2,0.6,0.3,1,0.3h8.6c0.4,0,0.7-0.1,1-0.3c0.2-0.2,0.3-0.5,0.3-0.8V99.2c0-0.3-0.1-0.6-0.3-0.9c-0.3-0.2-0.6-0.3-1-0.3
	L447.4,98L447.4,98z"/>
<path class="st0" d="M485.9,95.8h4.3c2.5,0,3.8,1.2,3.8,3.4v4.6c0.1,1-0.3,1.9-1,2.6c-0.8,0.6-1.8,0.9-2.9,0.9h-9.9v9.2h-2.6V95.8
	H485.9z M480.3,104.9h9.9c0.4,0,0.7-0.1,1-0.3c0.2-0.2,0.3-0.5,0.3-0.8v-4.6c0-0.3-0.1-0.6-0.3-0.9c-0.3-0.2-0.6-0.3-1-0.3h-9.9
	L480.3,104.9z"/>
<path class="st0" d="M514.5,116.4h-3.2v-3.2h3.2V116.4z"/>
<path class="st0" d="M548.7,111.8v1.2c0,2.3-1.3,3.4-3.8,3.4h-8.6c-2.6,0-3.8-1.1-3.8-3.4V99.2c0-2.3,1.3-3.4,3.8-3.4h8.6
	c2.6,0,3.8,1.2,3.8,3.4v1.1h-2.6v-1.1c0-0.3-0.1-0.6-0.3-0.9c-0.3-0.2-0.6-0.3-1-0.3h-8.6c-0.8,0-1.3,0.4-1.3,1.2v13.7
	c0,0.3,0.1,0.6,0.3,0.8c0.3,0.2,0.6,0.3,1,0.3h8.6c0.4,0,0.7-0.1,1-0.3c0.2-0.2,0.3-0.5,0.3-0.8v-1.2L548.7,111.8z"/>
<path class="st0" d="M574.8,95.8h4.3c2.6,0,3.8,1.2,3.8,3.4v13.7c0,2.3-1.3,3.4-3.8,3.4h-8.6c-2.5,0-3.8-1.1-3.8-3.4V99.2
	c-0.1-1,0.3-1.9,1-2.6c0.8-0.6,1.8-0.9,2.9-0.9L574.8,95.8z M570.5,98c-0.9,0-1.3,0.4-1.3,1.2v13.7c0,0.3,0.1,0.6,0.3,0.8
	c0.3,0.2,0.6,0.3,1,0.3h8.6c0.4,0,0.7-0.1,1-0.3c0.2-0.2,0.3-0.5,0.3-0.8V99.2c0-0.3-0.1-0.6-0.3-0.9c-0.3-0.2-0.6-0.3-1-0.3
	L570.5,98L570.5,98z"/>
<path class="st0" d="M611.7,114.1l8.8-18.3h2.1v20.6H620v-14.7l-7,14.7h-2.6l-7-14.7v14.7h-2.6V95.8h2L611.7,114.1z"/>
<path class="st1" d="M50.7,103.4C37.5,99,27.3,88.3,23.6,74.8C27.3,88.2,37.5,98.9,50.7,103.4z"/>
<path class="st1" d="M90.7,121.6c1-0.5,2.1-1,3.1-1.5C92.7,120.7,91.7,121.2,90.7,121.6z"/>
<path class="st1" d="M93.7,120.1c1-0.5,2-1.1,3-1.7C95.7,119,94.7,119.6,93.7,120.1z"/>
<path class="st1" d="M119.9,94c-3.6-3.8-8.6-5.9-13.8-5.9c-4.5,0-8.9,1.6-12.3,4.6c7.3-6.7,18.7-6.4,25.6,0.7L119.9,94z"/>
<path class="st1" d="M22.1,62.3c0-1,0.1-2,0.2-2.9C22.3,60.3,22.2,61.3,22.1,62.3z"/>
<path class="st1" d="M22.4,58.6c0-0.2,0.1-0.5,0.1-0.7c-0.1,0.5-0.1,1-0.2,1.4C22.4,59.1,22.4,58.9,22.4,58.6z"/>
<path class="st1" d="M27.3,43.6c0.8-1.4,1.6-2.8,2.6-4.1C29,40.8,28.1,42.2,27.3,43.6z"/>
<path class="st1" d="M29.9,39.5c0.6-0.8,1.3-1.7,1.9-2.5C31.2,37.8,30.5,38.7,29.9,39.5z"/>
<path class="st1" d="M86.7,18.4c0.9-0.6,1.8-1.2,2.8-1.7C88.5,17.2,87.6,17.8,86.7,18.4z"/>
<path class="st1" d="M102,13c-3.8,0.3-7.6,1.3-11.1,3C94.4,14.3,98.1,13.3,102,13L102,13z"/>
<path class="st1" d="M257.6,106.2c-3.9,4.4-8.5,8.3-13.5,11.4c-9.1-0.5-17.2-6-21.1-14.3c3.6-1.2,7-2.8,10.1-4.9
	C240,104,248.8,106.8,257.6,106.2z"/>
<path class="st1" d="M223,1.3c5.8,1.2,11.4,3.2,16.6,6c4.1,8.2,3.4,18-1.9,25.4c-2.8-2.5-5.9-4.6-9.3-6.3
	C229.9,17.7,227.9,8.7,223,1.3z"/>
<path class="st1" d="M244.6,40.6c5.6-6.9,8.4-15.6,7.8-24.5c4.4,3.9,8.3,8.5,11.5,13.5c-0.5,9.1-6,17.2-14.3,21.1
	C248.4,47.2,246.7,43.8,244.6,40.6z"/>
<path class="st1" d="M272.5,76.8c-1.2,5.8-3.2,11.4-6,16.6c-8.2,4.1-18,3.4-25.4-1.9c2.5-2.8,4.6-5.9,6.3-9.3
	C256.1,83.6,265.1,81.7,272.5,76.8z"/>
<path class="st1" d="M230,124.3c-5.6,1.9-11.5,2.9-17.4,3.2c-7.7-5-11.9-13.9-11.1-23c2.8,0.6,5.6,0.9,8.5,0.9c0.9,0,1.8,0,2.7-0.1
	C215.9,113.6,222,120.4,230,124.3z"/>
<path class="st1" d="M251.6,61.1c8.3-3.2,15.1-9.3,19-17.3c1.9,5.6,2.9,11.5,3.1,17.4c-5,7.7-13.9,11.9-23,11.1
	c0.6-2.8,0.9-5.6,0.9-8.5C251.6,62.9,251.6,62,251.6,61.1z"/>
<path class="st1" d="M106.1,88.2c5.2,0,10.2,2.1,13.8,5.8c-0.3,0.6-0.7,1.2-1,1.8c-0.3,0.5-0.5,0.9-0.8,1.4s-0.4,0.7-0.6,1
	s-0.6,0.9-0.8,1.3s-0.8,1.1-1.2,1.7s-0.9,1.2-1.3,1.8s-0.7,0.9-1.1,1.4c-0.1,0.1-0.2,0.3-0.4,0.4c-0.4,0.4-0.8,0.9-1.2,1.3
	s-0.8,0.8-1.2,1.3c-1,1-2,2-3,3c-0.2,0.2-0.4,0.4-0.7,0.6s-0.6,0.5-0.8,0.7s-0.5,0.4-0.7,0.6l-0.4,0.4l-1,0.8
	c-0.9,0.7-1.8,1.4-2.7,2.1c-0.4,0.3-0.8,0.6-1.2,0.8l-0.4,0.3l-1.2,0.8l0,0l-1.4,0.9c-1,0.6-2,1.2-3,1.7s-2,1-3.1,1.5l-1.6,0.7
	c-32.3,14-69.9-0.9-83.9-33.2C1.6,80.8-0.2,71.8,0,62.7C0.6,27.5,29.6-0.6,64.8,0c13.5,0.2,26.7,4.8,37.5,12.9L102,13
	c-3.8,0.3-7.5,1.3-11,3c-0.5,0.2-1,0.5-1.5,0.7c-1,0.5-1.9,1.1-2.8,1.7c-2.7,1.9-5.2,4.2-7.2,6.8c-5-2-10.3-3.1-15.7-3.1
	c-0.6,0-1.2,0-1.7,0s-1.1,0-1.6,0.1l-0.9,0.1c-0.8,0.1-1.7,0.2-2.5,0.3h-0.1c-0.3,0-0.7,0.1-1,0.2s-0.8,0.1-1.2,0.3l-1,0.2l-1.5,0.4
	h-0.1c-0.5,0.1-1,0.3-1.5,0.5s-1.1,0.4-1.7,0.6l-1.3,0.5l-0.2,0.1c-0.5,0.2-1,0.4-1.5,0.6l-0.2,0.1c-0.4,0.2-0.8,0.4-1.3,0.6l0,0
	c-0.4,0.2-0.9,0.5-1.3,0.7s-1,0.6-1.5,0.9s-0.8,0.5-1.1,0.7c-2,1.3-3.9,2.8-5.6,4.5c-0.3,0.3-0.7,0.6-1,1s-0.8,0.8-1.1,1.2
	s-0.8,0.9-1.1,1.3c-0.7,0.8-1.3,1.6-1.9,2.5c-0.9,1.3-1.8,2.7-2.6,4.1v0.1c-0.3,0.5-0.5,0.9-0.7,1.4s-0.5,1-0.7,1.5c0,0,0,0.1,0,0.1
	c-0.2,0.5-0.4,1-0.6,1.4s-0.4,0.9-0.5,1.4l-0.1,0.2c-0.2,0.5-0.3,0.9-0.5,1.4v0.1c-0.8,2.4-1.3,4.9-1.6,7.5c0,0.3,0,0.5-0.1,0.7
	c-0.1,1-0.2,1.9-0.2,2.9c0,0.5,0,1,0,1.5l0,0c0,0.4,0,0.9,0,1.3s0,0.7,0,1.1s0,0.5,0,0.8s0,0.7,0.1,1c0.1,1.2,0.3,2.3,0.5,3.5
	c0,0.2,0.1,0.5,0.1,0.7s0.1,0.7,0.2,1c0.1,0.5,0.3,1.1,0.4,1.6c3.7,13.5,13.9,24.2,27.1,28.6c0.5,0.2,1.1,0.3,1.6,0.5
	c1.8,0.5,3.7,0.9,5.6,1.2c0.3,0,0.6,0.1,0.9,0.1l0.9,0.1l1,0.1l1.8,0.1h1.1c2.9,0,5.8-0.3,8.7-0.9c0.6-0.1,1.1-0.2,1.6-0.4
	c1-0.3,2-0.5,2.9-0.9c0.5-0.2,1-0.3,1.5-0.5c1.7-0.7,3.4-1.4,5.1-2.3c0.5-0.3,1-0.6,1.5-0.8c2.9-1.7,5.6-3.8,8-6.1
	c0.2-0.2,0.5-0.5,0.7-0.7C97.2,89.7,101.6,88.1,106.1,88.2z"/>
<path class="st1" d="M207.3,22.3c-3.1-8.3-9.3-15.1-17.3-19c5.6-1.9,11.5-2.9,17.4-3.1c7.7,5,11.9,13.9,11.1,23
	c-2.8-0.6-5.6-0.9-8.5-0.9C209.1,22.1,208.2,22.2,207.3,22.3z"/>
<path class="st1" d="M197,126.2c-13.5-2.8-25.6-9.9-34.7-20.2l-35-36.3l0,0L95.5,36.8c-2.6-3.1-5.7-5.8-9.2-8
	c6.2-7.1,16-10,25.1-7.3l0,0L133.1,44l0,0l2.1,2.2l11.2,11.6l0,0c1.8-19.7,12.7-37.4,29.4-47.9c9.1,0.5,17.3,6,21.1,14.3
	c-21.8,7.2-33.7,30.7-26.6,52.5c1.6,4.8,4,9.3,7.2,13.2l0,0c0.4,0.5,0.9,1.1,1.3,1.6l0.3,0.3c0.4,0.5,0.9,1,1.4,1.4
	c0.1,0.1,0.2,0.2,0.3,0.3c0.9,0.9,1.8,1.7,2.8,2.5l0.4,0.3c0.7,0.6,1.4,1.1,2.1,1.6c1.7,1.2,3.5,2.3,5.4,3.2
	C190.2,109.9,192.1,118.8,197,126.2z"/>
<path class="st1" d="M186.2,97.9c-0.4-0.3-0.7-0.5-1.1-0.8C185.5,97.4,185.9,97.7,186.2,97.9z"/>
<path class="st1" d="M191.6,101.1c-0.8-0.4-1.5-0.8-2.3-1.2C190.1,100.3,190.8,100.8,191.6,101.1z"/>
<path class="st1" d="M179,91.6l0.3,0.3L179,91.6z"/>
<path class="st1" d="M188.5,99.4c-0.5-0.3-0.9-0.6-1.4-0.9C187.6,98.9,188.1,99.2,188.5,99.4z"/>
</svg>
