<svg xmlns="http://www.w3.org/2000/svg" viewBox="0 0 623.29 127.57"><defs><style>.cls-1{fill:#434257;}.cls-2{fill:#db2001;}</style></defs><title>bbctop-logo</title><g id="Layer_2" data-name="Layer 2"><g id="图层_1" data-name="图层 1"><path class="cls-1" d="M311.37,45.83H321V65.4q0,3.22,2.68,4v-22q0-4.83-6.17-4.82h-6.17V33.77h10.19V30.28q0-3.48-4.56-3.49h-5.09V17.68h9.65V13.93h11.26v3.75h8V26.8h-8v7h8.31v8.85h-7v7.77h6.43V59.5h-6.43v9.92h42.09v2.95q0,5.89-5.63,5.9H326.92q-4.56-.8-5.9-4.29v4.29h-9.65Zm54.69-31.09q9.11,0,9.11,7.51V37q0,4-5.09,4.29h-5.36v-15q0-3.22-2.41-3.22h-1.88q-5.09,13.67-16.62,18.76V30.55a17.3,17.3,0,0,0,5.9-7.51h-6.17V14.73Zm8.84,36.46V67l-30.83-.27V51.19q0-8.58,8.58-8h15Q374.9,43.15,374.9,51.19Zm-13.14.54h-7.51v6.43H365V54.68A2.89,2.89,0,0,0,361.77,51.73Z"/><path class="cls-1" d="M393.72,45.83h9.65V65.4q0,3.22,3.48,4v-22q0-4.83-7-4.82h-6.17V33.77h11V30.28q0-3.48-4.56-3.49h-5.9V17.68h10.45V13.93H416v3.75h7.24V26.8H416v7h7.51v8.85h-6.17v7.77h5.63V59.5h-5.63v9.92h41.28v2.95q0,5.89-5.63,5.9H409.27q-4.56-.8-5.9-4.29v4.29h-9.65Zm44,.27,4.56-2.95-3-16.08h-3.48V57.36q0,1.61,2.41,1.61h2.15v8.31h-8.31q-6.43,0-6.43-6.43V27.07q0-9.11,7.77-9.11h5.09l-.27-3.75h10.19l.27,3.75h3.22l-1.07-2.68h6.43l1.34,5.9q0,5.63-5.36,5.9h-3.48l1.87,10.45,5.9-3.48V44.49l-4,2.68,4,20.37H446.8l-2.68-14.48-6.43,4Z"/><path class="cls-1" d="M540.94,35.38v4.75a4.36,4.36,0,0,1-4.36,4.36H523V67.81a1.61,1.61,0,0,0,1.61,1.61h16.08v3.85A4.73,4.73,0,0,1,535.94,78H518.42a6.7,6.7,0,0,1-6.7-6.7V44.49h-3.49q-7.51,24.93-30.83,33.78V66.74q13.4-8.84,18.23-22.25H476.07V35.38h21.71L499.12,23H477.95V13.93h61.12v5.14a4,4,0,0,1-4,4H511.19l-1.34,12.33Z"/><path class="cls-1" d="M558.42,14.73h16.89q10.45-.54,10.19,8V33q0,6.7-7.24,10.45h7.24v22q-.54,8.31-9.38,8.31H571V64.86H574V23h-5.36V78H558.42Zm29.76,9.38q0-9.92,8.84-9.92h16.89q8.58,0,8.58,9.11V49H598.9v19.3q0,1.34,2.41,1.34h2.41v4.56A3.75,3.75,0,0,1,600,78h-5.1q-6.7,0-6.7-6.43Zm10.72,2.95h12.6v-.8q0-3.75-4.82-3.75H598.9Zm7.77,8.58H598.9v4.82h12.6V38.59Q611.49,35.38,606.67,35.64Zm14.21,16.08v9.38h-6.43l8.84,16.09H611.49l-9.38-19.57q-.27-5.89,3.75-5.9Z"/><path class="cls-1" d="M319.85,95.76h4.3q3.85,0,3.85,3.45v4.58a2.8,2.8,0,0,1-.47,1.57,1.62,1.62,0,0,1-1.45.72,1.62,1.62,0,0,1,1.45.72,2.85,2.85,0,0,1,.47,1.6v4.55q0,3.42-3.85,3.42H311.7V95.76Zm4.24,9.16a1.31,1.31,0,0,0,.72-.17,1.34,1.34,0,0,0,.41-.41,2,2,0,0,0,.21-.61V99.21a1.19,1.19,0,0,0-.29-.86,1.33,1.33,0,0,0-1-.31h-9.89v6.87Zm-9.83,2.29v6.87h9.89a1.34,1.34,0,0,0,1-.31,1.09,1.09,0,0,0,.32-.82v-4.58a1.14,1.14,0,0,0-.32-.84,1.3,1.3,0,0,0-1-.32Z"/><path class="cls-1" d="M354,95.76h4.3q3.85,0,3.85,3.45v4.58a2.8,2.8,0,0,1-.47,1.57,1.62,1.62,0,0,1-1.45.72,1.62,1.62,0,0,1,1.45.72,2.85,2.85,0,0,1,.47,1.6v4.55q0,3.42-3.85,3.42H345.89V95.76Zm4.24,9.16a1.31,1.31,0,0,0,.72-.17,1.34,1.34,0,0,0,.41-.41,2,2,0,0,0,.21-.61V99.21a1.19,1.19,0,0,0-.29-.86,1.33,1.33,0,0,0-1-.31h-9.89v6.87Zm-9.83,2.29v6.87h9.89a1.34,1.34,0,0,0,1-.31,1.09,1.09,0,0,0,.32-.82v-4.58a1.14,1.14,0,0,0-.32-.84,1.3,1.3,0,0,0-1-.32Z"/><path class="cls-1" d="M396.39,111.78v1.16q0,3.42-3.85,3.42h-8.61q-3.85,0-3.85-3.42V99.21q0-3.45,3.85-3.45h8.61q3.85,0,3.85,3.45v1.13h-2.56V99.21a1.19,1.19,0,0,0-.29-.86,1.33,1.33,0,0,0-1-.31h-8.61q-1.28,0-1.28,1.19v13.71a1.14,1.14,0,0,0,.29.84,1.38,1.38,0,0,0,1,.29h8.61a1.34,1.34,0,0,0,1-.31,1.09,1.09,0,0,0,.32-.82v-1.16Z"/><path class="cls-1" d="M418.7,116.36V98h-6.87V95.76h16.3V98h-6.87v18.32Z"/><path class="cls-1" d="M451.73,95.76H456q3.85,0,3.85,3.45v13.74q0,3.42-3.85,3.42H447.4q-3.82,0-3.81-3.42V99.21a3.27,3.27,0,0,1,1-2.6,4.25,4.25,0,0,1,2.87-.86ZM447.43,98q-1.28,0-1.28,1.19v13.71a1.14,1.14,0,0,0,.29.84,1.38,1.38,0,0,0,1,.29H456a1.34,1.34,0,0,0,1-.31,1.11,1.11,0,0,0,.31-.82V99.21a1.19,1.19,0,0,0-.29-.86,1.33,1.33,0,0,0-1-.31h-8.61Z"/><path class="cls-1" d="M485.92,95.76h4.33q3.82,0,3.82,3.45v4.58a3.23,3.23,0,0,1-1,2.55,4.2,4.2,0,0,1-2.87.87h-9.89v9.16h-2.56V95.76Zm-5.59,9.16h9.89a1.34,1.34,0,0,0,1-.31,1.09,1.09,0,0,0,.32-.82V99.21a1.19,1.19,0,0,0-.29-.86,1.33,1.33,0,0,0-1-.31h-9.89Z"/><path class="cls-1" d="M514.53,116.36h-3.17v-3.18h3.17Z"/><path class="cls-1" d="M548.72,111.78v1.16q0,3.42-3.85,3.42h-8.61q-3.85,0-3.85-3.42V99.21q0-3.45,3.85-3.45h8.61q3.85,0,3.85,3.45v1.13h-2.56V99.21a1.19,1.19,0,0,0-.29-.86,1.33,1.33,0,0,0-1-.31h-8.61Q535,98,535,99.24v13.71a1.14,1.14,0,0,0,.29.84,1.38,1.38,0,0,0,1,.29h8.61a1.34,1.34,0,0,0,1-.31,1.09,1.09,0,0,0,.32-.82v-1.16Z"/><path class="cls-1" d="M574.76,95.76h4.3q3.85,0,3.85,3.45v13.74q0,3.42-3.85,3.42h-8.64q-3.82,0-3.81-3.42V99.21a3.27,3.27,0,0,1,1-2.6,4.25,4.25,0,0,1,2.87-.86ZM570.45,98q-1.28,0-1.28,1.19v13.71a1.14,1.14,0,0,0,.29.84,1.38,1.38,0,0,0,1,.29h8.61a1.34,1.34,0,0,0,1-.31,1.11,1.11,0,0,0,.31-.82V99.21a1.19,1.19,0,0,0-.29-.86,1.33,1.33,0,0,0-1-.31h-8.61Z"/><path class="cls-1" d="M611.7,114.07l8.79-18.32h2.11v20.61H620V101.71L613,116.36h-2.56l-7.05-14.65v14.65H600.8V95.76h2Z"/><path class="cls-2" d="M50.74,103.36A41.7,41.7,0,0,1,23.59,74.78,42.08,42.08,0,0,0,50.74,103.36Z"/><path class="cls-2" d="M90.65,121.63c1-.48,2.06-1,3.07-1.53C92.71,120.65,91.69,121.16,90.65,121.63Z"/><path class="cls-2" d="M93.72,120.1c1-.54,2-1.1,3-1.69C95.72,119,94.73,119.57,93.72,120.1Z"/><path class="cls-2" d="M119.92,94a19.21,19.21,0,0,0-13.84-5.88,18.57,18.57,0,0,0-12.34,4.63,18.41,18.41,0,0,1,25.64.69Z"/><path class="cls-2" d="M22.15,62.3c0-1,.1-2,.21-2.92C22.26,60.34,22.18,61.32,22.15,62.3Z"/><path class="cls-2" d="M22.43,58.64c0-.23.07-.47.11-.7q-.11.72-.18,1.44C22.38,59.13,22.4,58.89,22.43,58.64Z"/><path class="cls-2" d="M27.34,43.58a39.17,39.17,0,0,1,2.58-4.06A40.92,40.92,0,0,0,27.34,43.58Z"/><path class="cls-2" d="M29.92,39.52c.6-.85,1.25-1.69,1.92-2.49Q30.83,38.23,29.92,39.52Z"/><path class="cls-2" d="M86.68,18.4a28.59,28.59,0,0,1,2.8-1.7C88.52,17.22,87.58,17.79,86.68,18.4Z"/><path class="cls-2" d="M102,13a32,32,0,0,0-11.07,3,31.85,31.85,0,0,1,11-3Z"/><path class="cls-2" d="M257.63,106.21a64.32,64.32,0,0,1-13.49,11.45,24.81,24.81,0,0,1-21.07-14.34,41.69,41.69,0,0,0,10.1-4.93A35,35,0,0,0,257.63,106.21Z"/><path class="cls-2" d="M223,1.33a62.87,62.87,0,0,1,16.62,6,24.8,24.8,0,0,1-1.89,25.43,41.53,41.53,0,0,0-9.3-6.28A35,35,0,0,0,223,1.33Z"/><path class="cls-2" d="M244.62,40.64a35,35,0,0,0,7.82-24.46,63.72,63.72,0,0,1,11.45,13.48,24.84,24.84,0,0,1-14.34,21.08A41.51,41.51,0,0,0,244.62,40.64Z"/><path class="cls-2" d="M272.48,76.75a63.65,63.65,0,0,1-6,16.63,24.82,24.82,0,0,1-25.44-1.89,41.53,41.53,0,0,0,6.28-9.3A35,35,0,0,0,272.48,76.75Z"/><path class="cls-2" d="M230,124.35a63.23,63.23,0,0,1-17.38,3.15,24.82,24.82,0,0,1-11.07-23,41.46,41.46,0,0,0,8.47.87c.91,0,1.82,0,2.73-.1A35,35,0,0,0,230,124.35Z"/><path class="cls-2" d="M251.55,61.06a35.13,35.13,0,0,0,19-17.26,63.59,63.59,0,0,1,3.14,17.38,24.82,24.82,0,0,1-23,11.07,41.39,41.39,0,0,0,.87-8.47C251.65,62.87,251.61,62,251.55,61.06Z"/><path class="cls-2" d="M106.08,88.15A19.21,19.21,0,0,1,119.92,94c-.34.62-.68,1.24-1,1.85-.27.46-.54.92-.83,1.37s-.4.66-.62,1-.55.86-.84,1.29-.78,1.13-1.18,1.68-.88,1.2-1.35,1.79-.73.93-1.11,1.39c-.12.14-.23.28-.36.42-.37.45-.76.9-1.15,1.34s-.75.84-1.15,1.25c-1,1-2,2-3,3-.22.21-.43.41-.65.6s-.55.51-.83.74-.47.42-.71.61l-.44.38-1,.83c-.88.71-1.78,1.4-2.71,2.06q-.6.44-1.2.84l-.4.28-1.21.8h0l-1.43.89c-1,.59-2,1.15-3,1.69s-2,1-3.07,1.53l-1.58.71A63.78,63.78,0,0,1,0,62.7,63.76,63.76,0,0,1,102.26,12.94L102,13a31.85,31.85,0,0,0-11,3c-.49.23-1,.47-1.46.74a28.59,28.59,0,0,0-2.8,1.7,31.57,31.57,0,0,0-7.22,6.78,41.49,41.49,0,0,0-15.68-3.06c-.58,0-1.16,0-1.74,0s-1.08,0-1.62.09l-.9.09c-.85.08-1.69.19-2.53.33l-.1,0c-.35,0-.7.12-1,.19s-.8.15-1.19.25l-1,.23-1.53.41-.14,0c-.5.14-1,.3-1.48.47s-1.12.38-1.67.6l-1.27.5-.19.09c-.49.2-1,.42-1.45.65l-.2.1c-.43.2-.85.42-1.27.64h0c-.44.23-.88.47-1.32.73s-1,.58-1.49.89-.77.49-1.14.74A42.73,42.73,0,0,0,35,33.62c-.33.31-.65.63-1,.95s-.75.77-1.11,1.17-.76.86-1.13,1.29c-.67.8-1.32,1.64-1.92,2.49a39.17,39.17,0,0,0-2.58,4.06l0,.1c-.26.46-.51.93-.74,1.4s-.49,1-.71,1.47a.3.3,0,0,1,0,.08c-.21.48-.42.95-.61,1.43s-.37.93-.54,1.4l-.06.17c-.17.46-.33.93-.48,1.4l0,.13a41.34,41.34,0,0,0-1.64,7.48c0,.25,0,.49-.07.74-.11,1-.18,1.94-.21,2.92,0,.49,0,1,0,1.48h0c0,.44,0,.89,0,1.33s0,.74.05,1.1,0,.52,0,.78,0,.68.09,1c.12,1.17.29,2.33.5,3.48.05.23.09.46.14.69s.14.67.22,1c.12.53.25,1.06.4,1.58a41.7,41.7,0,0,0,27.15,28.58c.54.19,1.08.35,1.63.51A40.47,40.47,0,0,0,58,105c.31,0,.63.09.94.12l.94.1,1,.08,1.8.09h1.08a41.27,41.27,0,0,0,8.67-.91c.55-.11,1.1-.24,1.64-.37q1.48-.39,2.94-.87c.5-.17,1-.34,1.47-.52a43.06,43.06,0,0,0,5.07-2.32c.5-.27,1-.55,1.48-.85a41.73,41.73,0,0,0,8-6.14c.24-.24.48-.46.73-.69A18.57,18.57,0,0,1,106.08,88.15Z"/><path class="cls-2" d="M207.29,22.25A35.13,35.13,0,0,0,190,3.21,63.52,63.52,0,0,1,207.4.07a24.78,24.78,0,0,1,11.08,23,41.36,41.36,0,0,0-8.46-.87C209.1,22.15,208.19,22.19,207.29,22.25Z"/><path class="cls-2" d="M197,126.22A63.71,63.71,0,0,1,162.26,106l-35-36.31a.07.07,0,0,1,0,0L95.54,36.84a41.91,41.91,0,0,0-9.16-8,24.25,24.25,0,0,1,25.11-7.32s0,0,0,0l21.63,22.45,0,0,2.15,2.23,11.2,11.63a.43.43,0,0,1,0,0A63.74,63.74,0,0,1,175.88,9.91,24.8,24.8,0,0,1,197,24.25,41.61,41.61,0,0,0,177.67,90l0,0c.43.53.87,1.05,1.33,1.56l.26.28c.44.48.89,1,1.36,1.42.08.09.17.17.25.25A35.79,35.79,0,0,0,183.68,96l.4.34q1,.83,2.13,1.59a39.61,39.61,0,0,0,5.4,3.21A35.1,35.1,0,0,0,197,126.22Z"/><path class="cls-2" d="M186.21,97.92c-.36-.25-.72-.52-1.07-.78C185.49,97.4,185.85,97.66,186.21,97.92Z"/><path class="cls-2" d="M191.61,101.13c-.78-.38-1.53-.8-2.28-1.23C190.08,100.33,190.84,100.75,191.61,101.13Z"/><path class="cls-2" d="M179,91.57l.26.29Z"/><path class="cls-2" d="M188.54,99.43q-.7-.42-1.38-.87C187.62,98.86,188.08,99.15,188.54,99.43Z"/></g></g></svg>