<svg xmlns="http://www.w3.org/2000/svg" viewBox="0 0 273.73 127.57"><defs><style>.cls-1{fill:#db2001;}</style></defs><title>bbctop-icon</title><g id="Layer_2" data-name="Layer 2"><g id="图层_1" data-name="图层 1"><path class="cls-1" d="M50.74,103.36A41.7,41.7,0,0,1,23.59,74.78,42.08,42.08,0,0,0,50.74,103.36Z"/><path class="cls-1" d="M90.65,121.63c1-.48,2.06-1,3.07-1.53C92.71,120.65,91.69,121.16,90.65,121.63Z"/><path class="cls-1" d="M93.72,120.1c1-.54,2-1.1,3-1.69C95.72,119,94.73,119.57,93.72,120.1Z"/><path class="cls-1" d="M119.92,94a19.21,19.21,0,0,0-13.84-5.88,18.57,18.57,0,0,0-12.34,4.63,18.41,18.41,0,0,1,25.64.69Z"/><path class="cls-1" d="M22.15,62.3c0-1,.1-2,.21-2.92C22.26,60.34,22.18,61.32,22.15,62.3Z"/><path class="cls-1" d="M22.43,58.64c0-.23.07-.47.11-.7q-.11.72-.18,1.44C22.38,59.13,22.4,58.89,22.43,58.64Z"/><path class="cls-1" d="M27.34,43.58a39.17,39.17,0,0,1,2.58-4.06A40.92,40.92,0,0,0,27.34,43.58Z"/><path class="cls-1" d="M29.92,39.52c.6-.85,1.25-1.69,1.92-2.49Q30.83,38.23,29.92,39.52Z"/><path class="cls-1" d="M86.68,18.4a28.59,28.59,0,0,1,2.8-1.7C88.52,17.22,87.58,17.79,86.68,18.4Z"/><path class="cls-1" d="M102,13a32,32,0,0,0-11.07,3,31.85,31.85,0,0,1,11-3Z"/><path class="cls-1" d="M257.63,106.21a64.32,64.32,0,0,1-13.49,11.45,24.81,24.81,0,0,1-21.07-14.34,41.69,41.69,0,0,0,10.1-4.93A35,35,0,0,0,257.63,106.21Z"/><path class="cls-1" d="M223,1.33a62.87,62.87,0,0,1,16.62,6,24.8,24.8,0,0,1-1.89,25.43,41.53,41.53,0,0,0-9.3-6.28A35,35,0,0,0,223,1.33Z"/><path class="cls-1" d="M244.62,40.64a35,35,0,0,0,7.82-24.46,63.72,63.72,0,0,1,11.45,13.48,24.84,24.84,0,0,1-14.34,21.08A41.51,41.51,0,0,0,244.62,40.64Z"/><path class="cls-1" d="M272.48,76.75a63.65,63.65,0,0,1-6,16.63,24.82,24.82,0,0,1-25.44-1.89,41.53,41.53,0,0,0,6.28-9.3A35,35,0,0,0,272.48,76.75Z"/><path class="cls-1" d="M230,124.35a63.23,63.23,0,0,1-17.38,3.15,24.82,24.82,0,0,1-11.07-23,41.46,41.46,0,0,0,8.47.87c.91,0,1.82,0,2.73-.1A35,35,0,0,0,230,124.35Z"/><path class="cls-1" d="M251.55,61.06a35.13,35.13,0,0,0,19-17.26,63.59,63.59,0,0,1,3.14,17.38,24.82,24.82,0,0,1-23,11.07,41.39,41.39,0,0,0,.87-8.47C251.65,62.87,251.61,62,251.55,61.06Z"/><path class="cls-1" d="M106.08,88.15A19.21,19.21,0,0,1,119.92,94c-.34.62-.68,1.24-1,1.85-.27.46-.54.92-.83,1.37s-.4.66-.62,1-.55.86-.84,1.29-.78,1.13-1.18,1.68-.88,1.2-1.35,1.79-.73.93-1.11,1.39c-.12.14-.23.28-.36.42-.37.45-.76.9-1.15,1.34s-.75.84-1.15,1.25c-1,1-2,2-3,3-.22.21-.43.41-.65.6s-.55.51-.83.74-.47.42-.71.61l-.44.38-1,.83c-.88.71-1.78,1.4-2.71,2.06q-.6.44-1.2.84l-.4.28-1.21.8h0l-1.43.89c-1,.59-2,1.15-3,1.69s-2,1-3.07,1.53l-1.58.71A63.78,63.78,0,0,1,0,62.7,63.76,63.76,0,0,1,102.26,12.94L102,13a31.85,31.85,0,0,0-11,3c-.49.23-1,.47-1.46.74a28.59,28.59,0,0,0-2.8,1.7,31.57,31.57,0,0,0-7.22,6.78,41.49,41.49,0,0,0-15.68-3.06c-.58,0-1.16,0-1.74,0s-1.08,0-1.62.09l-.9.09c-.85.08-1.69.19-2.53.33l-.1,0c-.35,0-.7.12-1,.19s-.8.15-1.19.25l-1,.23-1.53.41-.14,0c-.5.14-1,.3-1.48.47s-1.12.38-1.67.6l-1.27.5-.19.09c-.49.2-1,.42-1.45.65l-.2.1c-.43.2-.85.42-1.27.64h0c-.44.23-.88.47-1.32.73s-1,.58-1.49.89-.77.49-1.14.74A42.73,42.73,0,0,0,35,33.62c-.33.31-.65.63-1,.95s-.75.77-1.11,1.17-.76.86-1.13,1.29c-.67.8-1.32,1.64-1.92,2.49a39.17,39.17,0,0,0-2.58,4.06l0,.1c-.26.46-.51.93-.74,1.4s-.49,1-.71,1.47a.3.3,0,0,1,0,.08c-.21.48-.42.95-.61,1.43s-.37.93-.54,1.4l-.06.17c-.17.46-.33.93-.48,1.4l0,.13a41.34,41.34,0,0,0-1.64,7.48c0,.25,0,.49-.07.74-.11,1-.18,1.94-.21,2.92,0,.49,0,1,0,1.48h0c0,.44,0,.89,0,1.33s0,.74.05,1.1,0,.52,0,.78,0,.68.09,1c.12,1.17.29,2.33.5,3.48.05.23.09.46.14.69s.14.67.22,1c.12.53.25,1.06.4,1.58a41.7,41.7,0,0,0,27.15,28.58c.54.19,1.08.35,1.63.51A40.47,40.47,0,0,0,58,105c.31,0,.63.09.94.12l.94.1,1,.08,1.8.09h1.08a41.27,41.27,0,0,0,8.67-.91c.55-.11,1.1-.24,1.64-.37q1.48-.39,2.94-.87c.5-.17,1-.34,1.47-.52a43.06,43.06,0,0,0,5.07-2.32c.5-.27,1-.55,1.48-.85a41.73,41.73,0,0,0,8-6.14c.24-.24.48-.46.73-.69A18.57,18.57,0,0,1,106.08,88.15Z"/><path class="cls-1" d="M207.29,22.25A35.13,35.13,0,0,0,190,3.21,63.52,63.52,0,0,1,207.4.07a24.78,24.78,0,0,1,11.08,23,41.36,41.36,0,0,0-8.46-.87C209.1,22.15,208.19,22.19,207.29,22.25Z"/><path class="cls-1" d="M197,126.22A63.71,63.71,0,0,1,162.26,106l-35-36.31a.07.07,0,0,1,0,0L95.54,36.84a41.91,41.91,0,0,0-9.16-8,24.25,24.25,0,0,1,25.11-7.32s0,0,0,0l21.63,22.45,0,0,2.15,2.23,11.2,11.63a.43.43,0,0,1,0,0A63.74,63.74,0,0,1,175.88,9.91,24.8,24.8,0,0,1,197,24.25,41.61,41.61,0,0,0,177.67,90l0,0c.43.53.87,1.05,1.33,1.56l.26.28c.44.48.89,1,1.36,1.42.08.09.17.17.25.25A35.79,35.79,0,0,0,183.68,96l.4.34q1,.83,2.13,1.59a39.61,39.61,0,0,0,5.4,3.21A35.1,35.1,0,0,0,197,126.22Z"/><path class="cls-1" d="M186.21,97.92c-.36-.25-.72-.52-1.07-.78C185.49,97.4,185.85,97.66,186.21,97.92Z"/><path class="cls-1" d="M191.61,101.13c-.78-.38-1.53-.8-2.28-1.23C190.08,100.33,190.84,100.75,191.61,101.13Z"/><path class="cls-1" d="M179,91.57l.26.29Z"/><path class="cls-1" d="M188.54,99.43q-.7-.42-1.38-.87C187.62,98.86,188.08,99.15,188.54,99.43Z"/></g></g></svg>